<svg width="27" height="21" viewBox="0 0 27 21" fill="none" xmlns="http://www.w3.org/2000/svg">
<path d="M4.91296 20.8801V19.4899C4.92112 19.373 4.90424 19.2557 4.86348 19.1458C4.82271 19.0359 4.75898 18.9359 4.67654 18.8526C4.5941 18.7693 4.49484 18.7045 4.38538 18.6626C4.27593 18.6207 4.1588 18.6026 4.04179 18.6095C3.88866 18.5995 3.73565 18.6308 3.59872 18.7001C3.46179 18.7693 3.34595 18.8741 3.26328 19.0034C3.18793 18.8779 3.08016 18.7752 2.9513 18.7058C2.82245 18.6365 2.67729 18.6032 2.53111 18.6095C2.40368 18.6031 2.27679 18.6301 2.163 18.6878C2.04921 18.7455 1.95247 18.8319 1.88235 18.9385V18.6651H1.40039V20.8801H1.88696V19.6521C1.87644 19.5763 1.88283 19.4992 1.90568 19.4262C1.92852 19.3531 1.96725 19.2861 2.01909 19.2298C2.07092 19.1736 2.13458 19.1295 2.20547 19.1007C2.27637 19.072 2.35276 19.0593 2.42914 19.0636C2.74889 19.0636 2.9111 19.2721 2.9111 19.6475V20.8801H3.39767V19.6521C3.38794 19.5765 3.39488 19.4996 3.41802 19.427C3.44116 19.3543 3.47992 19.2876 3.53159 19.2315C3.58327 19.1754 3.64659 19.1313 3.71712 19.1023C3.78765 19.0733 3.86367 19.0601 3.93985 19.0636C4.26884 19.0636 4.42639 19.2721 4.42639 19.6475V20.8801H4.91296ZM12.1142 18.6651H11.3264V17.9932H10.8399V18.6651H10.3903V19.1053H10.8399V20.1155C10.8399 20.6299 11.0391 20.9358 11.6091 20.9358C11.822 20.9364 12.0308 20.877 12.2115 20.7643L12.0725 20.3519C11.9433 20.429 11.7966 20.472 11.6462 20.477C11.4052 20.477 11.3264 20.3287 11.3264 20.1063V19.1053H12.1142V18.6651ZM16.2246 18.6095C16.1071 18.606 15.9908 18.6343 15.888 18.6914C15.7853 18.7485 15.6998 18.8323 15.6407 18.9339V18.6651H15.1634V20.8801H15.6453V19.6382C15.6453 19.2721 15.8028 19.0682 16.118 19.0682C16.2211 19.0668 16.3234 19.0857 16.4192 19.1239L16.5675 18.6697C16.4574 18.6303 16.3414 18.61 16.2246 18.6095V18.6095ZM10.0104 18.8412C9.73758 18.679 9.42393 18.5985 9.10674 18.6095C8.54602 18.6095 8.18459 18.8782 8.18459 19.3185C8.18459 19.6799 8.45335 19.9024 8.94916 19.9719L9.17624 20.0043C9.44036 20.0413 9.5655 20.1109 9.5655 20.236C9.5655 20.4074 9.38938 20.5048 9.06039 20.5048C8.79574 20.5124 8.53623 20.4308 8.32358 20.2731L8.09653 20.6484C8.37724 20.8445 8.71349 20.9452 9.05576 20.9358C9.69525 20.9358 10.0659 20.6345 10.0659 20.2128C10.0659 19.8236 9.77403 19.6197 9.2921 19.5501L9.06505 19.5177C8.85649 19.4899 8.68969 19.4483 8.68969 19.3C8.68969 19.1378 8.8472 19.0404 9.11137 19.0404C9.35393 19.0441 9.59156 19.1095 9.80184 19.2304L10.0104 18.8412ZM22.9207 18.6095C22.8032 18.606 22.6869 18.6343 22.5841 18.6914C22.4814 18.7485 22.3959 18.8323 22.3368 18.9339V18.6651H21.8595V20.8801H22.3414V19.6382C22.3414 19.2721 22.499 19.0682 22.8141 19.0682C22.9172 19.0668 23.0195 19.0857 23.1153 19.1239L23.2636 18.6697C23.1535 18.6303 23.0376 18.61 22.9207 18.6095V18.6095ZM16.7111 19.7726C16.7047 19.9286 16.731 20.0843 16.7884 20.2295C16.8458 20.3748 16.9329 20.5064 17.0442 20.616C17.1555 20.7256 17.2885 20.8106 17.4347 20.8657C17.5808 20.9208 17.7369 20.9446 17.8928 20.9358C18.1821 20.9503 18.4665 20.8561 18.6898 20.6716L18.4581 20.2823C18.2915 20.4093 18.0884 20.4792 17.8789 20.4816C17.6983 20.4706 17.5287 20.3912 17.4047 20.2594C17.2807 20.1277 17.2116 19.9535 17.2116 19.7726C17.2116 19.5917 17.2807 19.4176 17.4047 19.2858C17.5287 19.154 17.6983 19.0746 17.8789 19.0636C18.0884 19.066 18.2915 19.1359 18.4581 19.2629L18.6898 18.8736C18.4664 18.6892 18.1821 18.595 17.8928 18.6095C17.7369 18.6006 17.5808 18.6245 17.4347 18.6795C17.2886 18.7346 17.1556 18.8196 17.0442 18.9292C16.9329 19.0387 16.8458 19.1704 16.7884 19.3156C16.731 19.4609 16.7047 19.6165 16.7111 19.7726V19.7726ZM21.2246 19.7726V18.6651H20.7427V18.9339C20.6604 18.8279 20.554 18.7431 20.4322 18.6867C20.3105 18.6302 20.177 18.6038 20.043 18.6095C19.7443 18.6241 19.4628 18.7531 19.2566 18.9696C19.0504 19.1861 18.9354 19.4736 18.9354 19.7726C18.9354 20.0716 19.0504 20.3591 19.2566 20.5757C19.4628 20.7922 19.7443 20.9211 20.043 20.9358C20.177 20.9415 20.3105 20.915 20.4322 20.8586C20.554 20.8021 20.6604 20.7174 20.7427 20.6113V20.8801H21.2246V19.7726ZM19.4313 19.7726C19.4387 19.6419 19.4843 19.5162 19.5623 19.4111C19.6404 19.306 19.7475 19.226 19.8704 19.181C19.9934 19.136 20.1268 19.128 20.2543 19.1579C20.3817 19.1879 20.4976 19.2545 20.5877 19.3495C20.6778 19.4445 20.738 19.5638 20.7611 19.6927C20.7842 19.8216 20.769 19.9544 20.7175 20.0748C20.666 20.1951 20.5804 20.2978 20.4712 20.3701C20.3621 20.4424 20.2341 20.4811 20.1032 20.4816C20.0115 20.4828 19.9204 20.4651 19.8359 20.4294C19.7513 20.3937 19.6751 20.3409 19.6119 20.2743C19.5488 20.2076 19.5002 20.1287 19.4691 20.0423C19.438 19.956 19.4251 19.8641 19.4313 19.7726V19.7726ZM13.6156 18.6095C13.3151 18.6253 13.0324 18.7569 12.8267 18.9767C12.6211 19.1964 12.5086 19.4873 12.5128 19.7882C12.517 20.0892 12.6376 20.3768 12.8493 20.5907C13.0609 20.8047 13.3472 20.9283 13.6481 20.9358C13.9787 20.9474 14.302 20.8368 14.5563 20.6252L14.32 20.2684C14.137 20.4151 13.9103 20.4966 13.6759 20.5001C13.5166 20.5135 13.3584 20.4644 13.2347 20.3632C13.111 20.262 13.0316 20.1167 13.0132 19.9579H14.6583C14.6629 19.8977 14.6675 19.8375 14.6675 19.7726C14.6629 19.0821 14.2366 18.6095 13.6156 18.6095V18.6095ZM13.6063 19.0404C13.7519 19.0376 13.8927 19.0926 13.9978 19.1934C14.1029 19.2941 14.1638 19.4324 14.1671 19.578H13.0178C13.0263 19.4293 13.0926 19.2898 13.2026 19.1893C13.3126 19.0889 13.4575 19.0354 13.6063 19.0404V19.0404ZM25.6964 19.7726V17.7754H25.2145V18.9339C25.1322 18.8279 25.0258 18.7431 24.904 18.6867C24.7823 18.6302 24.6488 18.6038 24.5148 18.6095C24.2161 18.6241 23.9346 18.753 23.7284 18.9696C23.5222 19.1861 23.4072 19.4736 23.4072 19.7726C23.4072 20.0716 23.5222 20.3591 23.7284 20.5757C23.9346 20.7922 24.2161 20.9211 24.5148 20.9358C24.6488 20.9415 24.7823 20.915 24.904 20.8586C25.0258 20.8021 25.1322 20.7174 25.2145 20.6113V20.8801H25.6964V19.7726ZM26.4998 20.5591C26.5297 20.5589 26.5594 20.5648 26.587 20.5764C26.6135 20.5875 26.6377 20.6035 26.6582 20.6236C26.6786 20.6437 26.6949 20.6675 26.7062 20.6938C26.7178 20.7208 26.7238 20.7498 26.7238 20.7792C26.7238 20.8085 26.7178 20.8376 26.7062 20.8646C26.6948 20.8907 26.6785 20.9144 26.6582 20.9344C26.6376 20.9546 26.6135 20.9707 26.587 20.9819C26.5594 20.9937 26.5298 20.9997 26.4998 20.9995C26.4557 20.9999 26.4125 20.9874 26.3755 20.9634C26.3385 20.9394 26.3094 20.905 26.2918 20.8646C26.2802 20.8376 26.2743 20.8085 26.2743 20.7792C26.2743 20.7498 26.2802 20.7208 26.2918 20.6938C26.3031 20.6675 26.3193 20.6437 26.3396 20.6236C26.3601 20.6034 26.3844 20.5873 26.4111 20.5764C26.4392 20.5648 26.4694 20.5589 26.4998 20.5591V20.5591ZM26.4998 20.9509C26.5226 20.9511 26.5453 20.9465 26.5662 20.9374C26.5863 20.9287 26.6046 20.9162 26.6201 20.9007C26.6521 20.8684 26.6701 20.8248 26.6701 20.7793C26.6701 20.7338 26.6521 20.6902 26.6201 20.6579C26.6047 20.6424 26.5864 20.63 26.5662 20.6215C26.5452 20.6125 26.5226 20.608 26.4998 20.6082C26.4766 20.6081 26.4535 20.6126 26.4321 20.6215C26.4116 20.6299 26.393 20.6423 26.3773 20.6579C26.3453 20.6902 26.3274 20.7338 26.3274 20.7793C26.3274 20.8248 26.3453 20.8684 26.3773 20.9007C26.3931 20.9163 26.4117 20.9288 26.4321 20.9374C26.4535 20.9465 26.4765 20.9511 26.4998 20.9509V20.9509ZM26.5128 20.6762C26.5344 20.6748 26.5559 20.681 26.5735 20.6938C26.5805 20.6995 26.5861 20.7069 26.5898 20.7151C26.5935 20.7234 26.5952 20.7325 26.5948 20.7415C26.595 20.7493 26.5936 20.757 26.5907 20.7642C26.5878 20.7714 26.5834 20.7779 26.5778 20.7833C26.5644 20.7952 26.5474 20.8023 26.5295 20.8036L26.5964 20.8807H26.5441L26.482 20.8041H26.4621V20.8807H26.4184V20.6762H26.5128ZM26.4621 20.7146V20.7691H26.5122C26.5219 20.7695 26.5315 20.7672 26.5398 20.7623C26.5432 20.76 26.5459 20.7569 26.5477 20.7533C26.5495 20.7496 26.5503 20.7456 26.55 20.7415C26.5502 20.7375 26.5494 20.7336 26.5476 20.73C26.5458 20.7265 26.5431 20.7234 26.5398 20.7213C26.5314 20.7164 26.5219 20.7141 26.5122 20.7146H26.4621ZM23.9031 19.7726C23.9106 19.6419 23.9562 19.5162 24.0342 19.4111C24.1122 19.306 24.2193 19.226 24.3423 19.181C24.4652 19.1361 24.5987 19.1281 24.7261 19.158C24.8536 19.188 24.9694 19.2546 25.0595 19.3496C25.1496 19.4446 25.2098 19.5639 25.2329 19.6928C25.2559 19.8217 25.2408 19.9545 25.1893 20.0748C25.1377 20.1952 25.0521 20.2978 24.943 20.3701C24.8338 20.4424 24.7059 20.4811 24.575 20.4816C24.4832 20.4828 24.3922 20.465 24.3077 20.4294C24.2231 20.3937 24.1469 20.3409 24.0837 20.2742C24.0206 20.2076 23.972 20.1287 23.9409 20.0423C23.9098 19.956 23.8969 19.8641 23.9031 19.7726V19.7726ZM7.6285 19.7726V18.6651H7.14654V18.9339C7.06428 18.8279 6.95783 18.7431 6.83609 18.6867C6.71436 18.6302 6.58087 18.6038 6.44681 18.6095C6.14819 18.6241 5.86663 18.7531 5.66046 18.9696C5.45429 19.1861 5.3393 19.4736 5.3393 19.7726C5.3393 20.0716 5.45429 20.3591 5.66046 20.5757C5.86663 20.7922 6.14819 20.9211 6.44681 20.9358C6.58087 20.9415 6.71436 20.915 6.83609 20.8586C6.95783 20.8021 7.06428 20.7174 7.14654 20.6113V20.8801H7.6285V19.7726ZM5.83515 19.7726C5.84264 19.6419 5.88822 19.5162 5.96626 19.4111C6.0443 19.306 6.1514 19.226 6.27435 19.181C6.3973 19.1361 6.53073 19.1281 6.65817 19.158C6.78562 19.188 6.90151 19.2546 6.99156 19.3496C7.08161 19.4446 7.14188 19.5639 7.16494 19.6928C7.188 19.8217 7.17284 19.9545 7.12132 20.0748C7.06981 20.1952 6.9842 20.2978 6.87505 20.3701C6.76589 20.4424 6.63798 20.4811 6.50706 20.4816C6.4153 20.4828 6.32427 20.465 6.23972 20.4294C6.15517 20.3937 6.07894 20.3409 6.01581 20.2742C5.95269 20.2076 5.90405 20.1287 5.87295 20.0423C5.84186 19.956 5.82899 19.8641 5.83515 19.7726V19.7726Z" fill="#DCDCDC"/>
<path d="M17.1482 1.7832H9.84863V14.9007H17.1482V1.7832Z" fill="#FF5F00"/>
<path d="M10.3114 8.34233C10.3102 7.07902 10.5965 5.83201 11.1485 4.6957C11.7006 3.55939 12.5039 2.56355 13.4977 1.78359C12.267 0.816261 10.789 0.214693 9.2326 0.0476447C7.67621 -0.119404 6.10422 0.154808 4.69631 0.838938C3.28839 1.52307 2.10135 2.58951 1.27088 3.91638C0.440407 5.24324 0 6.777 0 8.34233C0 9.90766 0.440407 11.4414 1.27088 12.7683C2.10135 14.0951 3.28839 15.1616 4.69631 15.8457C6.10422 16.5299 7.67621 16.8041 9.2326 16.637C10.789 16.47 12.267 15.8684 13.4977 14.9011C12.5039 14.1211 11.7006 13.1253 11.1485 11.989C10.5965 10.8526 10.3102 9.60563 10.3114 8.34233V8.34233Z" fill="#EB001B"/>
<path d="M26.9963 8.34233C26.9963 9.90763 26.556 11.4414 25.7255 12.7683C24.8951 14.0951 23.7081 15.1616 22.3002 15.8457C20.8923 16.5298 19.3204 16.8041 17.764 16.637C16.2076 16.47 14.7297 15.8684 13.499 14.9011C14.4919 14.1203 15.2946 13.1243 15.8466 11.9882C16.3985 10.8521 16.6853 9.60543 16.6853 8.34233C16.6853 7.07922 16.3985 5.8326 15.8466 4.69647C15.2946 3.56033 14.4919 2.56434 13.499 1.78359C14.7297 0.816259 16.2076 0.21469 17.764 0.0476432C19.3204 -0.119404 20.8923 0.154814 22.3002 0.838951C23.7081 1.52309 24.8951 2.58954 25.7255 3.91641C26.556 5.24327 26.9963 6.77702 26.9963 8.34233V8.34233Z" fill="#F79E1B"/>
<path d="M26.1968 13.5133V13.2447H26.3051V13.19H26.0293V13.2447H26.1376V13.5133H26.1968ZM26.7322 13.5133V13.1895H26.6477L26.5504 13.4122L26.4532 13.1895H26.3686V13.5133H26.4283V13.269L26.5195 13.4796H26.5814L26.6725 13.2685V13.5133H26.7322Z" fill="#F79E1B"/>
</svg>