<svg width="47" height="15" viewBox="0 0 47 15" fill="none" xmlns="http://www.w3.org/2000/svg">
<path d="M34.0873 0.647597C33.0294 0.262115 31.9111 0.0686771 30.7852 0.076394C27.1441 0.076394 24.5725 1.91062 24.5543 4.54362C24.5315 6.47798 26.3817 7.56805 27.7813 8.21435C29.2172 8.87886 29.6974 9.29759 29.6929 9.89155C29.6838 10.795 28.5459 11.2046 27.4877 11.2046C26.0335 11.2046 25.2393 11.0021 24.0172 10.4946L23.5644 10.283L23.0478 13.3142C23.933 13.6829 25.5283 13.9992 27.1759 14.0265C31.0469 14.0265 33.5775 12.2037 33.6071 9.40227C33.639 7.85706 32.6376 6.68962 30.5303 5.72472C29.2491 5.0989 28.4549 4.68017 28.4549 4.04524C28.4549 3.48314 29.1353 2.88235 30.5576 2.88235C31.5042 2.85945 32.445 3.03705 33.3181 3.40349L33.6594 3.55596L34.176 0.627116L34.0873 0.647597V0.647597ZM43.536 0.322171H40.6914C39.8061 0.322171 39.1394 0.565672 38.7525 1.4441L33.2817 13.8376H37.1527L37.9264 11.8054L42.6508 11.81C42.7623 12.2856 43.1037 13.8376 43.1037 13.8376H46.5172L43.536 0.322171V0.322171ZM19.3179 0.208385H23.0068L20.6992 13.7307H17.0149L19.3179 0.203833V0.208385V0.208385ZM9.95331 7.66135L10.3356 9.53882L13.9404 0.322171H17.8478L12.0424 13.8194H8.14412L4.95811 2.39079C4.90651 2.20235 4.78533 2.0405 4.61903 1.93793C3.47071 1.34473 2.25398 0.894576 0.996094 0.597531L1.04616 0.313066H6.9835C7.7891 0.344926 8.43768 0.597531 8.65388 1.45775L9.95103 7.66818V7.66135H9.95331ZM38.9846 9.04043L40.4547 5.2582C40.4365 5.29916 40.7574 4.47763 40.944 3.97014L41.1966 5.13758L42.05 9.03816H38.9823V9.04043H38.9846Z" fill="#DCDCDC"/>
</svg>